<svg xmlns="http://www.w3.org/2000/svg" width="465" height="465" fill="none" viewBox="0 0 465 465"><rect width="465" height="465" fill="#1E1E1E"/><rect width="465" height="465" fill="#fff"/><path fill="#1934FF" stroke="#1934FF" d="M76.2862 271.883C-8.51381 172.283 27.2862 101.383 62.2862 84.8828C92.2862 68.8828 139.986 49.7828 308.786 39.3828C519.786 26.3828 437.286 348.383 344.286 409.883C251.286 471.383 120.786 444.883 97.7862 420.883C74.7862 396.883 182.286 396.383 76.2862 271.883Z"/><path fill="#fff" d="M256.242 56.9734C256.242 64.5015 253.504 71.0029 248.029 76.4779C242.553 81.9528 235.965 84.6903 228.265 84.6903C220.736 84.6903 214.233 81.9528 208.758 76.4779C203.282 71.0029 200.544 64.5015 200.544 56.9734C200.544 49.2743 203.282 42.6873 208.758 37.2124C214.233 31.7375 220.736 29 228.265 29C235.965 29 242.553 31.7375 248.029 37.2124C253.504 42.6873 256.242 49.2743 256.242 56.9734ZM253.676 359.035L295 365.451V377H170V365.451L211.068 359.035V153.726L176.93 147.31V135.761H253.676V359.035Z"/></svg>